<svg xmlns="http://www.w3.org/2000/svg" viewBox="0 0 960 600" fill="none" role="img" aria-label="Tera workflow policy graph">
  <rect width="960" height="600" rx="12" fill="#f4f0ea"/>
  <rect x="0" y="0" width="960" height="36" rx="12" fill="#e8e4dc"/>
  <circle cx="20" cy="18" r="6" fill="#ff5f57"/>
  <circle cx="40" cy="18" r="6" fill="#febc2e"/>
  <circle cx="60" cy="18" r="6" fill="#28c840"/>
  <text x="40" y="72" font-family="system-ui,sans-serif" font-size="13" font-weight="600" fill="#2a2420">Book flight workflow</text>
  <text x="40" y="92" font-family="system-ui,sans-serif" font-size="11" fill="#5c6b5a">MDP policy · 12 states · 0 tokens on replay</text>
  <circle cx="180" cy="220" r="28" fill="#3d4f3a" fill-opacity="0.15" stroke="#3d4f3a" stroke-width="2"/>
  <text x="180" y="225" text-anchor="middle" font-family="system-ui,sans-serif" font-size="10" fill="#3d4f3a">Start</text>
  <circle cx="380" cy="180" r="24" fill="#c4a484" fill-opacity="0.2" stroke="#8b6914" stroke-width="1.5"/>
  <circle cx="380" cy="280" r="24" fill="#c4a484" fill-opacity="0.2" stroke="#8b6914" stroke-width="1.5"/>
  <circle cx="560" cy="220" r="24" fill="#c4a484" fill-opacity="0.2" stroke="#8b6914" stroke-width="1.5"/>
  <circle cx="740" cy="220" r="28" fill="#3d4f3a" fill-opacity="0.25" stroke="#3d4f3a" stroke-width="2"/>
  <text x="740" y="225" text-anchor="middle" font-family="system-ui,sans-serif" font-size="10" fill="#3d4f3a">Done</text>
  <line x1="208" y1="210" x2="356" y2="185" stroke="#7a8b72" stroke-width="1.5" stroke-dasharray="4 3"/>
  <line x1="208" y1="230" x2="356" y2="275" stroke="#7a8b72" stroke-width="1.5"/>
  <line x1="404" y1="200" x2="536" y2="215" stroke="#7a8b72" stroke-width="1.5"/>
  <line x1="404" y1="270" x2="536" y2="225" stroke="#7a8b72" stroke-width="1.5"/>
  <line x1="584" y1="220" x2="712" y2="220" stroke="#7a8b72" stroke-width="1.5"/>
  <rect x="40" y="400" width="880" height="160" rx="10" fill="#e8e4dc"/>
  <rect x="60" y="420" width="120" height="8" rx="4" fill="#c4a484" fill-opacity="0.5"/>
  <rect x="60" y="440" width="200" height="6" rx="3" fill="#5c6b5a" fill-opacity="0.3"/>
  <rect x="60" y="460" width="160" height="6" rx="3" fill="#5c6b5a" fill-opacity="0.2"/>
</svg>
