<svg xmlns="http://www.w3.org/2000/svg" width="1920" height="1080" viewBox="0 0 1920 1080" fill="none">
  <rect width="1920" height="1080" fill="#090909"/>

  <text x="100" y="100" font-family="'DM Sans',system-ui,sans-serif" font-size="11" fill="#C4A484" letter-spacing="0.14em" font-weight="600">ARCHITECTURE</text>
  <text x="100" y="200" font-family="Georgia,'Instrument Serif',serif" font-size="68" fill="#F5F2EC" letter-spacing="-0.02em">
    <tspan x="100" dy="0">One window.</tspan>
    <tspan x="100" dy="78">Not Chrome plus your app.</tspan>
  </text>

  <rect x="100" y="360" width="820" height="520" rx="28" fill="#0c1814" stroke="#12A884" stroke-opacity="0.35"/>
  <text x="148" y="420" font-family="'DM Sans',system-ui,sans-serif" font-size="11" fill="#12A884" letter-spacing="0.12em" font-weight="600">TERA</text>

  <rect x="148" y="480" width="724" height="80" rx="14" fill="#141414" stroke="#ffffff" stroke-opacity="0.08"/>
  <text x="180" y="528" font-family="'DM Sans',system-ui,sans-serif" font-size="20" fill="#F5F2EC" font-weight="600">Agent UI</text>
  <path d="M510 568v32" stroke="#12A884" stroke-width="2" stroke-opacity="0.4"/>
  <rect x="148" y="600" width="724" height="80" rx="14" fill="#141414" stroke="#12A884" stroke-opacity="0.2"/>
  <text x="180" y="648" font-family="'DM Sans',system-ui,sans-serif" font-size="20" fill="#F5F2EC" font-weight="600">WKWebView tab</text>
  <path d="M510 688v32" stroke="#12A884" stroke-width="2" stroke-opacity="0.4"/>
  <rect x="148" y="720" width="724" height="80" rx="14" fill="#141414" stroke="#ffffff" stroke-opacity="0.08"/>
  <text x="180" y="768" font-family="'DM Sans',system-ui,sans-serif" font-size="20" fill="#F5F2EC" font-weight="600">Python policy engine</text>

  <rect x="1000" y="360" width="820" height="520" rx="28" fill="#141414" stroke="#ffffff" stroke-opacity="0.08"/>
  <text x="1048" y="420" font-family="'DM Sans',system-ui,sans-serif" font-size="11" fill="#7A7A74" letter-spacing="0.12em" font-weight="600">BROWSER USE</text>

  <rect x="1048" y="480" width="724" height="80" rx="14" fill="#1a1a18" stroke="#ffffff" stroke-opacity="0.06"/>
  <text x="1080" y="528" font-family="'DM Sans',system-ui,sans-serif" font-size="20" fill="#A3A39D">Orchestrator</text>
  <path d="M1410 568v32" stroke="#7A7A74" stroke-width="1.5" stroke-dasharray="4 4"/>
  <rect x="1048" y="600" width="724" height="80" rx="14" fill="#1c1612" stroke="#C4A484" stroke-opacity="0.2"/>
  <text x="1080" y="648" font-family="'DM Sans',system-ui,sans-serif" font-size="20" fill="#C4A484">Headless Chromium</text>
  <path d="M1410 688v32" stroke="#7A7A74" stroke-width="1.5" stroke-dasharray="4 4"/>
  <rect x="1048" y="720" width="724" height="80" rx="14" fill="#1a1a18" stroke="#ffffff" stroke-opacity="0.06"/>
  <text x="1080" y="768" font-family="'DM Sans',system-ui,sans-serif" font-size="20" fill="#A3A39D">LLM every step</text>

  <text x="1820" y="1000" text-anchor="end" font-family="'DM Sans',system-ui,sans-serif" font-size="13" fill="#5C6B5A">04 / 08</text>
  <line x1="100" y1="1020" x2="1820" y2="1020" stroke="#ffffff" stroke-opacity="0.06"/>
</svg>
